<?xml version="1.0" encoding="UTF-8" standalone="no"?>
<!-- Created with Inkscape (http://www.inkscape.org/) -->

<svg
   width="210mm"
   height="297mm"
   viewBox="0 0 210 297"
   version="1.1"
   id="svg1"
   xml:space="preserve"
   inkscape:version="1.4 (86a8ad7, 2024-10-11)"
   sodipodi:docname="logo.svg"
   xmlns:inkscape="http://www.inkscape.org/namespaces/inkscape"
   xmlns:sodipodi="http://sodipodi.sourceforge.net/DTD/sodipodi-0.dtd"
   xmlns="http://www.w3.org/2000/svg"
   xmlns:svg="http://www.w3.org/2000/svg"><sodipodi:namedview
     id="namedview1"
     pagecolor="#ffffff"
     bordercolor="#000000"
     borderopacity="0.25"
     inkscape:showpageshadow="2"
     inkscape:pageopacity="0.0"
     inkscape:pagecheckerboard="0"
     inkscape:deskcolor="#d1d1d1"
     inkscape:document-units="mm"
     inkscape:zoom="16.634007"
     inkscape:cx="388.7518"
     inkscape:cy="564.59638"
     inkscape:window-width="2560"
     inkscape:window-height="1369"
     inkscape:window-x="-8"
     inkscape:window-y="-8"
     inkscape:window-maximized="1"
     inkscape:current-layer="layer1" /><defs
     id="defs1" /><g
     inkscape:label="Layer 1"
     inkscape:groupmode="layer"
     id="layer1"><rect
       style="fill:#0046a0;fill-opacity:1;stroke-width:0.3;stroke-linecap:square;stroke-miterlimit:6"
       id="rect1"
       width="8.4666662"
       height="8.4666662"
       x="100.76666"
       y="144.26666"
       inkscape:export-filename="adsbinav.png"
       inkscape:export-xdpi="96"
       inkscape:export-ydpi="96" /><path
       fill="#000000"
       d="m 102.62348,146.24589 0.009,-9.6e-4 c 0.0812,-0.009 0.15304,0.0954 0.20477,0.14734 l 0.25565,0.26088 c 0.24708,0.25195 0.50426,0.51502 0.76,0.75831 l 0.70224,-0.21458 c 0.14371,-0.0443 0.32587,-0.10642 0.47136,-0.14032 0.23242,-0.75436 1.1552,-0.38025 1.00442,0.20806 -0.0765,0.2988 -0.36146,0.43763 -0.6519,0.36324 -0.16193,0.26593 -0.31665,0.5685 -0.48483,0.82539 0.10707,0.0931 0.26472,0.25948 0.36723,0.36352 l 0.87883,0.88374 c 0.12236,0.1215 0.31377,0.24232 0.089,0.39156 -0.64647,0.42911 -1.32232,0.54632 -2.06937,0.39915 -0.0741,-0.0151 -0.14226,-0.0414 -0.21817,-0.055 0.18391,0.58527 0.43027,1.20967 0.64556,1.78777 0.0383,0.1027 -0.0256,0.18794 -0.13294,0.1939 l -2.01483,-7.7e-4 c -0.16526,-8.6e-4 -0.38154,0.008 -0.54885,-0.006 -0.18721,-0.0166 -0.035,-0.33328 -0.004,-0.41708 l 0.63786,-1.74551 c 0.0723,-0.19939 0.15196,-0.39584 0.21871,-0.59714 -0.80162,-0.94504 -0.97065,-2.28477 -0.21253,-3.31227 0.0298,-0.0404 0.047,-0.0682 0.0936,-0.0927 z m 1.46536,1.40275 c 0.0703,0.0939 0.23038,0.23099 0.31969,0.32043 l 0.16848,0.16805 c 0.0261,0.0257 0.0692,0.0643 0.092,0.0908 0.15603,-0.23382 0.31321,-0.52157 0.45336,-0.76769 -0.0144,-0.022 -0.0484,-0.0845 -0.065,-0.09 -0.26417,0.0811 -0.70503,0.23356 -0.96858,0.27837 z"
       id="path1"
       style="stroke-width:0.0661456;fill:#ffffff;fill-opacity:1" /><path
       fill="#d5d9de"
       d="m 102.67484,146.6753 c 0.0574,0.0453 0.15934,0.15325 0.2156,0.20959 l 2.82485,2.82163 c 0.0704,0.0697 0.14241,0.13184 0.20476,0.20939 -0.10769,0.0757 -0.32761,0.17121 -0.45328,0.21539 -2.03437,0.67787 -3.8949,-1.58521 -2.79193,-3.456 z"
       id="path2"
       style="stroke-width:0.0661456;fill:#0046a0;fill-opacity:1" /><path
       fill="#4c7088"
       d="m 102.97655,149.89187 c 0.21296,0.15501 0.34303,0.26496 0.59164,0.39425 0.0862,0.18419 0.15283,0.43425 0.22353,0.62781 0.14518,0.39752 0.30287,0.80355 0.44112,1.20308 h -0.80342 -1.26464 c 0.0603,-0.15529 0.11584,-0.32169 0.1735,-0.47954 l 0.39628,-1.08485 c 0.0799,-0.2191 0.15824,-0.44334 0.24199,-0.66075 z"
       id="path3"
       style="stroke-width:0.0661456;fill:#0046a0;fill-opacity:1" /><path
       fill="#e8d58e"
       d="m 105.48883,146.94833 c 0.10919,-0.0229 0.21626,0.0471 0.2391,0.15631 0.0229,0.1092 -0.0471,0.21625 -0.15635,0.2391 -0.10914,0.0228 -0.21617,-0.0471 -0.23905,-0.15632 -0.0228,-0.10918 0.0471,-0.21622 0.1563,-0.23909 z"
       id="path4"
       style="stroke-width:0.0661456;fill:#0046a0;fill-opacity:1" /><path
       fill="#000000"
       d="m 105.64932,144.58138 c 0.3467,-0.009 0.70215,0.0914 1.0161,0.22972 1.16275,0.51211 1.8146,1.87841 1.42117,3.09625 -0.0154,0.0478 -0.0628,0.0763 -0.1075,0.0914 -0.26978,0.029 -0.14915,-0.2678 -0.12809,-0.38812 0.22362,-1.20473 -0.50473,-2.36015 -1.70646,-2.66409 -0.085,-0.0217 -0.16746,-0.0301 -0.25401,-0.045 -0.1063,-0.0183 -0.32597,0.0259 -0.3654,-0.11263 -0.0307,-0.10779 0.0212,-0.17704 0.12419,-0.20755 z"
       id="path5"
       style="stroke-width:0.0661456;fill:#ffffff;fill-opacity:1" /><path
       fill="#000000"
       d="m 105.74327,145.2356 c 0.17082,-0.0104 0.47805,0.0769 0.6331,0.14177 0.8023,0.33652 1.27967,1.1684 1.1715,2.03012 -0.0169,0.13491 -0.0153,0.26152 -0.16131,0.31636 -0.26516,0.0335 -0.17265,-0.25664 -0.15284,-0.3859 0.13428,-0.87436 -0.54094,-1.70633 -1.41627,-1.78392 -0.25111,-0.009 -0.25231,-0.26183 -0.0742,-0.31843 z"
       id="path6"
       style="stroke-width:0.0661456;fill:#ffffff;fill-opacity:1" /><path
       fill="#000000"
       d="m 105.82519,145.89971 c 0.094,-0.011 0.33213,0.0725 0.42079,0.11742 0.31218,0.1581 0.51454,0.40494 0.62513,0.73686 0.0519,0.15594 0.13553,0.61214 -0.0868,0.67929 -0.17034,0.0402 -0.17875,-0.14582 -0.16981,-0.2528 0.0364,-0.43548 -0.3117,-0.94483 -0.75556,-0.96531 -0.19799,-0.009 -0.2304,-0.27093 -0.0337,-0.31546 z"
       id="path7"
       style="stroke-width:0.0661456;fill:#ffffff;fill-opacity:1" /></g></svg>
